<?xml version="1.0" standalone="no"?>
<!DOCTYPE svg PUBLIC "-//W3C//DTD SVG 20010904//EN"
 "http://www.w3.org/TR/2001/REC-SVG-20010904/DTD/svg10.dtd">
<svg version="1.0" xmlns="http://www.w3.org/2000/svg"
 width="208.000000pt" height="209.000000pt" viewBox="0 0 208.000000 209.000000"
 preserveAspectRatio="xMidYMid meet">

<g transform="translate(0.000000,209.000000) scale(0.100000,-0.100000)"
fill="#000000" stroke="none">
<path d="M767 1906 c-37 -13 -89 -38 -116 -55 -55 -36 -61 -37 -61 -14 0 23
-51 -26 -76 -73 -20 -36 -28 -41 -40 -23 -10 16 -33 -29 -34 -65 0 -24 -2 -26
-15 -16 -23 19 -35 2 -35 -52 0 -40 -3 -49 -15 -44 -35 13 -10 -88 34 -138 15
-18 15 -18 -19 -11 l-35 8 26 -34 c14 -19 49 -46 77 -61 l52 -26 -45 -18 c-25
-9 -45 -21 -45 -25 0 -5 24 -9 53 -9 28 0 62 -3 75 -6 23 -7 23 -7 -10 -36
l-33 -28 68 2 c37 2 67 2 67 0 0 -1 -8 -14 -17 -28 l-17 -26 55 3 c54 4 54 4
52 -24 -2 -24 1 -27 18 -22 14 5 28 0 44 -15 l23 -21 -25 -44 -24 -45 56 26
c57 25 58 25 104 7 62 -24 198 -24 268 0 l51 18 51 -26 c28 -14 51 -23 51 -20
0 3 -9 24 -20 46 l-21 40 23 19 c13 11 31 17 41 14 16 -5 18 -1 15 23 l-3 28
59 -4 59 -3 -17 23 c-9 13 -16 26 -16 29 0 3 29 3 65 0 36 -3 65 -2 65 2 0 3
-14 17 -32 29 -28 21 -29 23 -12 30 10 4 43 8 72 8 28 1 52 5 52 10 0 5 -19
16 -41 25 l-41 17 51 25 c44 22 91 68 91 89 0 4 -12 4 -27 1 l-26 -7 18 28
c34 51 45 78 45 107 0 21 -4 27 -15 22 -12 -4 -15 3 -16 32 -1 52 -13 90 -23
74 -13 -21 -21 -13 -35 33 -12 40 -31 62 -31 35 0 -22 -20 -8 -43 33 -14 23
-34 51 -46 61 -19 17 -21 17 -21 3 0 -23 -8 -21 -60 13 -44 30 -116 60 -175
74 -28 7 -27 5 22 -43 88 -87 115 -179 73 -248 -11 -18 -22 -33 -25 -33 -2 0
-28 18 -57 40 -77 58 -134 75 -248 74 -106 -1 -168 -21 -245 -80 l-42 -32 -17
28 c-22 38 -20 112 3 158 11 21 40 61 66 90 26 29 45 52 43 52 -1 0 -33 -11
-71 -24z m-205 -175 c-5 -60 15 -105 69 -159 46 -45 48 -54 24 -141 -9 -34
-15 -86 -13 -115 l3 -51 -79 -3 c-68 -2 -78 -1 -67 12 6 8 24 17 39 21 25 6
23 8 -33 31 -33 14 -69 34 -80 46 l-20 20 25 -6 c14 -3 36 -9 50 -12 l25 -7
-27 22 c-27 21 -88 107 -88 123 0 5 21 -8 48 -29 26 -21 39 -29 30 -17 -26 30
-48 89 -48 126 l0 33 18 -30 c11 -16 27 -36 36 -44 14 -12 13 -7 -4 23 -17 27
-21 46 -17 73 8 46 27 68 27 31 0 -15 12 -40 26 -55 20 -22 23 -23 15 -6 -19
39 -13 94 15 130 14 18 26 33 27 33 1 0 0 -22 -1 -49z m1015 -30 c3 -14 2 -42
-4 -63 -8 -31 -8 -36 3 -27 7 6 19 26 26 44 16 45 28 35 28 -22 0 -34 -7 -55
-27 -82 l-26 -36 31 29 c18 16 34 38 38 48 3 10 10 18 16 18 16 0 0 -69 -28
-120 l-25 -45 28 26 c63 57 68 58 44 12 -11 -24 -38 -59 -58 -79 l-37 -37 30
7 c16 4 38 9 49 12 38 10 -36 -44 -89 -64 l-51 -19 40 -19 40 -19 -74 -3 c-41
-2 -80 -1 -86 2 -8 3 -12 29 -12 73 0 37 -6 94 -13 125 l-13 58 50 53 c57 60
78 111 70 171 l-6 41 25 -30 c13 -16 27 -41 31 -54z m-400 -22 c53 -26 59 -43
29 -89 -24 -36 -28 -38 -96 -45 l-72 -7 -39 38 c-48 46 -49 73 -7 109 29 24
37 26 87 20 31 -3 75 -15 98 -26z m-193 -101 c40 -47 41 -53 17 -123 -15 -45
-24 -53 -77 -82 -32 -18 -63 -33 -68 -33 -5 0 -28 20 -53 44 l-44 44 26 58
c30 68 58 101 100 120 47 21 61 17 99 -28z m347 -7 c80 -83 96 -174 41 -225
-15 -13 -23 -11 -77 17 -59 31 -61 34 -85 104 l-24 71 28 41 c18 25 37 41 49
41 12 0 41 -22 68 -49z m-532 11 c7 -13 7 -22 0 -29 -5 -5 -20 -39 -33 -75
-22 -64 -86 -155 -99 -141 -25 24 6 132 59 211 39 55 57 64 73 34z m244 -232
c26 -16 50 -36 52 -42 2 -7 -1 -42 -8 -77 -14 -75 -40 -100 -109 -108 -38 -5
-49 -1 -88 29 -56 43 -67 71 -49 129 12 38 21 47 69 71 30 15 62 27 71 27 8 1
36 -12 62 -29z m248 -1 c56 -30 59 -34 59 -70 0 -21 -4 -49 -9 -63 -10 -24
-118 -106 -141 -106 -6 0 -33 12 -61 26 -48 24 -51 27 -45 57 3 18 8 51 12 75
6 36 14 48 48 71 35 24 59 37 75 40 2 1 30 -13 62 -30z m-611 -69 c0 -8 12
-39 25 -69 14 -30 24 -59 22 -65 -7 -18 -67 117 -67 149 0 23 3 27 10 15 5 -8
10 -22 10 -30z m190 -130 c19 -15 45 -32 56 -38 25 -13 49 -65 40 -87 -14 -37
-125 -3 -191 60 -47 43 -47 78 -2 92 38 12 51 8 97 -27z m504 31 c16 -25 -90
-126 -167 -159 -109 -47 -52 41 82 127 67 43 76 46 85 32z m-259 -180 c28 -11
-75 -24 -123 -15 -30 6 -33 8 -17 15 26 10 114 10 140 0z"/>
<path d="M455 765 c-24 -23 -25 -30 -25 -145 0 -140 10 -160 79 -160 48 0 71
26 71 82 0 34 -3 38 -25 38 -23 0 -25 -4 -25 -41 0 -36 -2 -40 -22 -37 -22 3
-23 7 -26 119 -2 100 0 118 14 123 23 9 34 -2 34 -35 0 -24 4 -29 25 -29 22 0
25 4 25 34 0 25 -7 40 -26 55 -35 28 -69 26 -99 -4z"/>
<path d="M1179 771 c-22 -18 -24 -28 -27 -126 -5 -155 7 -185 77 -185 66 0 76
21 76 167 0 119 -1 126 -24 144 -30 24 -72 24 -102 0z m69 -33 c14 -14 17
-205 3 -226 -5 -8 -17 -12 -27 -10 -17 3 -19 15 -22 112 -3 122 11 159 46 124z"/>
<path d="M631 643 c-12 -76 -24 -148 -27 -160 -4 -19 0 -23 21 -23 21 0 25 5
25 30 0 27 3 30 34 30 29 0 34 -4 40 -30 4 -24 11 -30 31 -30 20 0 25 4 21 18
-3 9 -15 81 -27 160 l-22 142 -37 0 -37 0 -22 -137z m75 -29 c6 -54 6 -54 -21
-54 -23 0 -26 3 -22 23 3 12 9 49 13 82 6 52 8 56 15 31 4 -15 11 -52 15 -82z"/>
<path d="M800 620 l0 -160 25 0 c23 0 24 3 27 67 3 70 14 85 42 58 11 -11 16
-34 16 -71 0 -50 2 -54 24 -54 23 0 24 2 19 68 -3 37 -10 73 -16 80 -7 9 -7
16 1 24 7 7 12 36 12 64 0 70 -15 84 -91 84 l-59 0 0 -160z m104 104 c17 -43
-1 -84 -36 -84 -15 0 -18 9 -18 50 0 46 2 50 24 50 13 0 27 -7 30 -16z"/>
<path d="M980 760 c0 -15 7 -20 25 -20 l25 0 0 -140 0 -140 25 0 25 0 0 140 0
140 25 0 c18 0 25 5 25 20 0 18 -7 20 -75 20 -68 0 -75 -2 -75 -20z"/>
<path d="M1340 620 l0 -160 65 0 c58 0 65 2 65 20 0 17 -7 20 -40 20 l-40 0 0
140 0 140 -25 0 -25 0 0 -160z"/>
<path d="M1535 768 c-5 -17 -45 -276 -45 -294 0 -8 9 -14 19 -14 13 0 21 9 26
30 6 26 11 30 41 30 31 0 34 -3 34 -30 0 -25 4 -30 25 -30 14 0 25 3 25 8 0
10 -39 250 -46 285 -5 23 -11 27 -40 27 -19 0 -36 -6 -39 -12z m57 -200 c-2
-5 -12 -8 -24 -8 -19 0 -20 4 -13 68 4 37 10 72 13 77 7 11 31 -125 24 -137z"/>
<path d="M350 390 c0 -7 237 -10 690 -10 453 0 690 3 690 10 0 7 -237 10 -690
10 -453 0 -690 -3 -690 -10z"/>
<path d="M767 340 c-12 -32 -13 -90 -2 -90 7 0 10 13 8 33 l-4 32 16 -28 c16
-27 35 -29 35 -2 0 8 5 17 11 21 8 5 10 -3 7 -25 -3 -19 0 -31 6 -31 13 0 9
80 -4 93 -4 5 -14 -8 -21 -30 l-12 -38 -17 40 c-12 27 -20 35 -23 25z"/>
<path d="M906 341 c-4 -5 -13 -28 -21 -50 -12 -36 -12 -41 0 -41 8 0 14 5 13
12 -2 6 6 14 16 16 14 3 17 0 13 -12 -5 -11 -1 -16 12 -16 18 0 18 2 2 45 -19
51 -27 60 -35 46z m12 -50 c-15 -5 -19 4 -11 24 6 18 7 18 13 -1 4 -10 3 -21
-2 -23z"/>
<path d="M975 299 c0 -32 4 -49 12 -49 9 0 11 10 7 33 l-6 32 31 -35 30 -35 1
37 c0 20 2 43 5 51 4 8 0 14 -9 14 -11 0 -13 -9 -9 -36 l5 -36 -20 29 c-36 51
-47 50 -47 -5z"/>
<path d="M1100 326 c-6 -14 -14 -37 -20 -51 -7 -20 -6 -25 5 -25 8 0 14 6 13
13 -2 6 6 12 17 12 11 0 19 -6 18 -12 -2 -7 3 -13 11 -13 13 0 13 6 -1 45 -18
56 -30 64 -43 31z m23 -16 c3 -12 0 -20 -8 -20 -8 0 -11 8 -8 20 3 11 7 20 8
20 1 0 5 -9 8 -20z"/>
<path d="M1185 330 c-28 -31 -10 -75 30 -75 23 0 31 5 33 23 2 14 -2 22 -11
22 -10 0 -13 -7 -10 -21 5 -17 2 -20 -13 -17 -12 2 -20 13 -22 32 -4 32 15 51
35 34 15 -13 28 -4 18 11 -10 17 -40 13 -60 -9z"/>
<path d="M1268 298 l-3 -48 33 0 c24 0 32 4 31 18 0 10 -3 12 -6 5 -7 -18 -33
-16 -33 2 0 8 7 15 15 15 8 0 15 5 15 10 0 6 -7 10 -15 10 -8 0 -15 5 -15 11
0 6 9 9 20 6 12 -3 20 0 20 7 0 7 -13 12 -29 12 -28 0 -29 -2 -33 -48z"/>
</g>
</svg>
